ModelForces
version=1
nRows=12
nColumns=29
inDegrees=no

This file contains the forces exerted on a model during a simulation.

A force is a generalized force, meaning that it can be either a force (N) or a torque (Nm).

Units are S.I. units (second, meters, Newtons, ...)
If the header above contains a line with 'inDegrees', this indicates whether rotational values are in degrees (yes) or radians (no).

endheader
time	gastroc	glut_max	iliopsoas	recfem	hamstrings	soleus	tibant	vasti	ankle_angle_LimitForce	PotentialEnergy	knee_angle_LimitForce	PotentialEnergy	hip_flexion_LimitForce	PotentialEnergy	patellofemoral_knee_angle_con_mobility_F0	patellofemoral_knee_angle_con_mobility_F1	seatConstraint_ground_Fx	seatConstraint_ground_Fy	seatConstraint_ground_Fz	seatConstraint_ground_Mx	seatConstraint_ground_My	seatConstraint_ground_Mz	seatConstraint_femur_r_Fx	seatConstraint_femur_r_Fy	seatConstraint_femur_r_Fz	seatConstraint_femur_r_Mx	seatConstraint_femur_r_My	seatConstraint_femur_r_Mz
      0.32295732	     16.31957881	     50.96021943	    292.48530983	    227.53165791	      9.12758307	    171.87632538	      7.26133345	   1400.60225374	      0.00000000	      0.00000000	      0.00000000	      0.00000000	      0.00000000	      0.00000000	    -19.92382930	     19.92382930	    103.41674627	    203.61813973	     -0.00001043	      1.55859695	     -0.79160989	   -106.29435859	   -103.41674627	   -203.61813973	      0.00001043	      0.00000000	      0.00000000	      0.00000000
      0.32416998	     16.31957881	     50.99888579	    291.88841653	    227.29955667	     26.09101600	    171.87632627	      7.26133336	   1404.12619902	      0.00000000	      0.00000000	      0.00000000	      0.00000000	      0.00000000	      0.00000000	    -19.96650746	     19.96650746	    100.54687958	    203.08653737	     -0.00001051	      1.55452773	     -0.76964241	   -104.58362999	   -100.54687958	   -203.08653737	      0.00001051	      0.00000000	      0.00000000	      0.00000000
      0.32739155	     16.31957881	     51.10253953	    290.28523601	    226.64913928	     34.52221260	    171.87632726	      7.26133328	   1413.55112166	      0.00000000	      0.00000000	      0.00000000	      0.00000000	      0.00000000	      0.00000000	    -20.08037801	     20.08037801	     99.37287895	    202.07482719	     -0.00001049	      1.54678357	     -0.76065597	   -103.69156702	    -99.37287895	   -202.07482719	      0.00001049	      0.00000000	      0.00000000	      0.00000000
      0.33531285	     16.31957881	     51.36621017	    286.16383969	    224.84619425	     52.81315734	    171.87632788	      7.26133321	   1437.05200459	      0.00000000	      0.00000000	      0.00000000	      0.00000000	      0.00000000	      0.00000000	    -20.36264000	     20.36264000	     96.89951633	    199.57345467	     -0.00001041	      1.52763677	     -0.74172351	   -101.72264886	    -96.89951633	   -199.57345467	      0.00001041	      0.00000000	      0.00000000	      0.00000000
      0.33618979	     16.31957881	     51.39609438	    285.69685072	    224.62872597	     39.97487974	    171.87632768	      7.26133323	   1439.67729991	      0.00000000	      0.00000000	      0.00000000	      0.00000000	      0.00000000	      0.00000000	    -20.39402341	     20.39402341	     99.23801176	    199.44803357	     -0.00001030	      1.52667678	     -0.75962358	   -102.98142314	    -99.23801176	   -199.44803357	      0.00001030	      0.00000000	      0.00000000	      0.00000000
      0.33785618	     16.31957881	     51.45345677	    284.79789306	    224.20606931	     37.93283500	    171.87632749	      7.26133326	   1444.67691180	      0.00000000	      0.00000000	      0.00000000	      0.00000000	      0.00000000	      0.00000000	    -20.45371143	     20.45371143	     99.74905921	    198.97397173	     -0.00001025	      1.52304809	     -0.76353540	   -103.14840269	    -99.74905921	   -198.97397173	      0.00001025	      0.00000000	      0.00000000	      0.00000000
      0.34530527	     16.31957881	     51.71698620	    280.67449340	    222.16699970	     22.23245676	    171.87632694	      7.26133331	   1467.17421906	      0.00000000	      0.00000000	      0.00000000	      0.00000000	      0.00000000	      0.00000000	    -20.72103039	     20.72103039	    103.16973590	    196.88508783	     -0.00000996	      1.50705881	     -0.78971903	   -104.52850416	   -103.16973590	   -196.88508783	      0.00000996	      0.00000000	      0.00000000	      0.00000000
      0.34673421	     16.31957881	     51.76908730	    279.85991952	    221.74864576	     31.54315936	    171.87632719	      7.26133329	   1471.51295946	      0.00000000	      0.00000000	      0.00000000	      0.00000000	      0.00000000	      0.00000000	    -20.77235283	     20.77235283	    101.65778552	    196.35618016	     -0.00000998	      1.50301025	     -0.77814575	   -103.56700002	   -101.65778552	   -196.35618016	      0.00000998	      0.00000000	      0.00000000	      0.00000000
      0.35185890	     16.31957881	     51.95894442	    276.91454176	    220.17831154	     38.78533145	    171.87632745	      7.26133327	   1487.12163390	      0.00000000	      0.00000000	      0.00000000	      0.00000000	      0.00000000	      0.00000000	    -20.95638371	     20.95638371	    100.82346831	    194.71159203	     -0.00000990	      1.49042174	     -0.77175942	   -102.70900926	   -100.82346831	   -194.71159203	      0.00000990	      0.00000000	      0.00000000	      0.00000000
      0.35996084	     16.31957881	     52.26979562	    272.16369079	    217.48748377	     12.12006479	    171.87632694	      7.26133330	   1511.92050889	      0.00000000	      0.00000000	      0.00000000	      0.00000000	      0.00000000	      0.00000000	    -21.24696301	     21.24696301	    106.17022927	    192.43356547	     -0.00000951	      1.47298471	     -0.81268631	   -105.10511368	   -106.17022927	   -192.43356547	      0.00000951	      0.00000000	      0.00000000	      0.00000000
      0.36116226	     16.31957881	     52.31729508	    271.44131109	    217.06826085	     28.77121630	    171.87632716	      7.26133328	   1515.60798558	      0.00000000	      0.00000000	      0.00000000	      0.00000000	      0.00000000	      0.00000000	    -21.28999456	     21.28999456	    103.34813030	    191.90597610	     -0.00000959	      1.46894621	     -0.79108447	   -103.42168909	   -103.34813030	   -191.90597610	      0.00000959	      0.00000000	      0.00000000	      0.00000000
      0.36446914	     16.31957881	     52.44941786	    269.45770671	    215.88801273	     37.24495465	    171.87632736	      7.26133327	   1525.76888985	      0.00000000	      0.00000000	      0.00000000	      0.00000000	      0.00000000	      0.00000000	    -21.40833753	     21.40833753	    102.12811442	    190.78937621	     -0.00000956	      1.46039917	     -0.78174580	   -102.47887171	   -102.12811442	   -190.78937621	      0.00000956	      0.00000000	      0.00000000	      0.00000000
